<svg width="31" height="34" viewBox="0 0 31 34" fill="none" xmlns="http://www.w3.org/2000/svg">
<path d="M6 7H4.38904L4.50381 8.60687L5.9322 28.6042C6.0041 29.6109 6.43651 30.5578 7.15011 31.2714C7.93675 32.0581 9.00366 32.5 10.1161 32.5H21.4028C22.5031 32.5 23.5584 32.0629 24.3365 31.2848C25.0663 30.555 25.4979 29.5794 25.547 28.5484L26.4983 8.57135L26.5731 7H25H6Z" fill="#D9D9D9" fill-opacity="0.22" stroke="black" stroke-width="3"/>
<path d="M0 6C0 5.44772 0.447715 5 1 5H30C30.5523 5 31 5.44772 31 6V7C31 7.55228 30.5523 8 30 8H1C0.447716 8 0 7.55228 0 7V6Z" fill="black"/>
<path d="M7.5 6L10.8083 2.32414C11.5668 1.48129 12.6475 1 13.7814 1H15.5H17.2186C18.3525 1 19.4332 1.48129 20.1917 2.32414L23.5 6" stroke="black" stroke-width="2"/>
</svg>
