<svg width="38" height="38" viewBox="0 0 38 38" fill="none" xmlns="http://www.w3.org/2000/svg">
<path d="M4 2C2.89543 2 2 2.89543 2 4V34C2 35.1046 2.89543 36 4 36H28C28.5582 36 29.091 35.7667 29.4696 35.3566L35.4696 28.8566C35.8106 28.4871 36 28.0028 36 27.5V4C36 2.89543 35.1046 2 34 2H4Z" fill="white" stroke="#999999" stroke-width="4" stroke-miterlimit="1" stroke-linejoin="round"/>
<path d="M28 26H26V28V34V36H28H30.5H31.3284L31.9142 35.4142L33.1642 34.1642L33.2058 34.1227L33.2448 34.0787L35.2448 31.8287L35.4206 31.631L35.5389 31.3944L35.7889 30.8944L36 30.4721V30V29V28V26H34H28Z" fill="white" stroke="#999999" stroke-width="4"/>
</svg>
